<mxfile host="app.diagrams.net" modified="2022-04-30T15:34:41.032Z" agent="5.0 (Windows)" etag="1NEiuaMuPZyZWIxdavNT" version="17.4.6" type="github">
  <diagram id="47x-5v3yfqEYgoNktSU5" name="Page-1">
    <mxGraphModel dx="960" dy="604" grid="1" gridSize="10" guides="1" tooltips="1" connect="1" arrows="1" fold="1" page="1" pageScale="1" pageWidth="827" pageHeight="1169" math="0" shadow="0">
      <root>
        <mxCell id="0" />
        <mxCell id="1" parent="0" />
        <mxCell id="w1KEjnMWuGDtwRHeb4zf-1" value="" style="edgeStyle=orthogonalEdgeStyle;rounded=0;orthogonalLoop=1;jettySize=auto;html=1;fontSize=12;" parent="1" source="w1KEjnMWuGDtwRHeb4zf-2" target="w1KEjnMWuGDtwRHeb4zf-4" edge="1">
          <mxGeometry relative="1" as="geometry" />
        </mxCell>
        <mxCell id="w1KEjnMWuGDtwRHeb4zf-2" value="Авторизация и профиль" style="shape=note;strokeWidth=2;fontSize=14;size=20;whiteSpace=wrap;html=1;" parent="1" vertex="1">
          <mxGeometry x="120" y="70" width="110.00000000000001" height="80" as="geometry" />
        </mxCell>
        <mxCell id="w1KEjnMWuGDtwRHeb4zf-15" value="" style="edgeStyle=orthogonalEdgeStyle;rounded=0;orthogonalLoop=1;jettySize=auto;html=1;" parent="1" source="w1KEjnMWuGDtwRHeb4zf-4" target="w1KEjnMWuGDtwRHeb4zf-14" edge="1">
          <mxGeometry relative="1" as="geometry" />
        </mxCell>
        <mxCell id="w1KEjnMWuGDtwRHeb4zf-4" value="Управление профилем и данными Клиента" style="shape=note;strokeWidth=2;fontSize=14;size=20;whiteSpace=wrap;html=1;" parent="1" vertex="1">
          <mxGeometry x="400" y="70" width="110.00000000000001" height="80" as="geometry" />
        </mxCell>
        <mxCell id="w1KEjnMWuGDtwRHeb4zf-5" value="Управление ресторанами и столиками" style="shape=note;strokeWidth=2;fontSize=14;size=20;whiteSpace=wrap;html=1;" parent="1" vertex="1">
          <mxGeometry x="940" y="70" width="110.00000000000001" height="80" as="geometry" />
        </mxCell>
        <mxCell id="w1KEjnMWuGDtwRHeb4zf-6" value="Как представитель Клиента я хочу авторизоваться, чтобы больше ни у кого не было доступа к моему личному кабинету" style="shape=note;strokeWidth=2;fontSize=14;size=20;whiteSpace=wrap;fillColor=#fff2cc;strokeColor=#d6b656;fontColor=#666600;" parent="1" vertex="1">
          <mxGeometry x="90" y="180" width="170" height="110" as="geometry" />
        </mxCell>
        <mxCell id="w1KEjnMWuGDtwRHeb4zf-7" value="Как представитель Клиента я хочу иметь возможность разлогиниться, чтобы в мой ЛК не мог попасть посторонний, если я залогинился не на своем устройстве." style="shape=note;strokeWidth=2;fontSize=14;size=20;whiteSpace=wrap;fillColor=#fff2cc;strokeColor=#d6b656;fontColor=#666600;" parent="1" vertex="1">
          <mxGeometry x="80" y="320" width="180" height="140" as="geometry" />
        </mxCell>
        <mxCell id="w1KEjnMWuGDtwRHeb4zf-8" value="Как представитель Клиента, я хочу иметь возможность восстановить пароль для сулучая, если он больше мне не доступен" style="shape=note;strokeWidth=2;fontSize=14;size=20;whiteSpace=wrap;fillColor=#fff2cc;strokeColor=#d6b656;fontColor=#666600;" parent="1" vertex="1">
          <mxGeometry x="90" y="490" width="170" height="110" as="geometry" />
        </mxCell>
        <mxCell id="w1KEjnMWuGDtwRHeb4zf-9" value="Как представитель Клиента я хочу иметь возможность редактировать данные Клиента, чтобы поддерживать их в актуальносм состоянии" style="shape=note;strokeWidth=2;fontSize=14;size=20;whiteSpace=wrap;fillColor=#fff2cc;strokeColor=#d6b656;fontColor=#666600;" parent="1" vertex="1">
          <mxGeometry x="360" y="180" width="170" height="120" as="geometry" />
        </mxCell>
        <mxCell id="w1KEjnMWuGDtwRHeb4zf-11" value="Как представитель Клиента я хочу иметь возможность просмотреть данные своей компании, чтобы убедиться, что они актуальны" style="shape=note;strokeWidth=2;fontSize=14;size=20;whiteSpace=wrap;fillColor=#fff2cc;strokeColor=#d6b656;fontColor=#666600;" parent="1" vertex="1">
          <mxGeometry x="360" y="330" width="170" height="120" as="geometry" />
        </mxCell>
        <mxCell id="w1KEjnMWuGDtwRHeb4zf-12" value="Как представитель Клиента я хочу иметь возможность поменять пароль своей УЗ, чтобы только у меня был доступ к ЛК Клиента" style="shape=note;strokeWidth=2;fontSize=14;size=20;whiteSpace=wrap;fillColor=#fff2cc;strokeColor=#d6b656;fontColor=#666600;" parent="1" vertex="1">
          <mxGeometry x="360" y="480" width="170" height="120" as="geometry" />
        </mxCell>
        <mxCell id="w1KEjnMWuGDtwRHeb4zf-13" value="Как представитель Клиента я хочу видеть свой тариф и срок его действия в ЛК, чтобы знать когда и сколько мне платить." style="shape=note;strokeWidth=2;fontSize=14;size=20;whiteSpace=wrap;fillColor=#fff2cc;strokeColor=#d6b656;fontColor=#666600;" parent="1" vertex="1">
          <mxGeometry x="640" y="320" width="170" height="120" as="geometry" />
        </mxCell>
        <mxCell id="w1KEjnMWuGDtwRHeb4zf-16" style="edgeStyle=orthogonalEdgeStyle;rounded=0;orthogonalLoop=1;jettySize=auto;html=1;entryX=0;entryY=0.5;entryDx=0;entryDy=0;entryPerimeter=0;" parent="1" source="w1KEjnMWuGDtwRHeb4zf-14" target="w1KEjnMWuGDtwRHeb4zf-5" edge="1">
          <mxGeometry relative="1" as="geometry" />
        </mxCell>
        <mxCell id="w1KEjnMWuGDtwRHeb4zf-14" value="Оплата и управление услугами" style="shape=note;strokeWidth=2;fontSize=14;size=20;whiteSpace=wrap;html=1;" parent="1" vertex="1">
          <mxGeometry x="670" y="70" width="110.00000000000001" height="80" as="geometry" />
        </mxCell>
        <mxCell id="w1KEjnMWuGDtwRHeb4zf-17" value="Как представитель Клиента, я не хочу забыть продлить тариф, чтобы не получить перерыв в работе." style="shape=note;strokeWidth=2;fontSize=14;size=20;whiteSpace=wrap;fillColor=#fff2cc;strokeColor=#d6b656;fontColor=#666600;" parent="1" vertex="1">
          <mxGeometry x="640" y="180" width="170" height="120" as="geometry" />
        </mxCell>
        <mxCell id="w1KEjnMWuGDtwRHeb4zf-18" value="Как представитель Клиента я хочу иметь возможность просмотреть список всех добавленных мной ресторанов" style="shape=note;strokeWidth=2;fontSize=14;size=20;whiteSpace=wrap;fillColor=#fff2cc;strokeColor=#d6b656;fontColor=#666600;" parent="1" vertex="1">
          <mxGeometry x="910" y="175" width="170" height="120" as="geometry" />
        </mxCell>
        <mxCell id="w1KEjnMWuGDtwRHeb4zf-19" value="Как представитель клиента я хочу добавить ресторан, чтобы столики в нем можно было забронировать через Систему" style="shape=note;strokeWidth=2;fontSize=14;size=20;whiteSpace=wrap;fillColor=#fff2cc;strokeColor=#d6b656;fontColor=#666600;" parent="1" vertex="1">
          <mxGeometry x="920" y="320" width="170" height="120" as="geometry" />
        </mxCell>
        <mxCell id="w1KEjnMWuGDtwRHeb4zf-20" value="Как представитель Клиента я хочу удалить ресторан, чтобы поддерживать их список в актуальном состоянии" style="shape=note;strokeWidth=2;fontSize=14;size=20;whiteSpace=wrap;fillColor=#fff2cc;strokeColor=#d6b656;fontColor=#666600;" parent="1" vertex="1">
          <mxGeometry x="920" y="464.5" width="170" height="120" as="geometry" />
        </mxCell>
        <mxCell id="w1KEjnMWuGDtwRHeb4zf-21" value="Как представитель Клиента я хочу не удалять, а блокировать ресторан, чтобы не вводить информацию по новой" style="shape=note;strokeWidth=2;fontSize=14;size=20;whiteSpace=wrap;fillColor=#fff2cc;strokeColor=#d6b656;fontColor=#666600;" parent="1" vertex="1">
          <mxGeometry x="920" y="1200" width="170" height="120" as="geometry" />
        </mxCell>
        <mxCell id="w1KEjnMWuGDtwRHeb4zf-22" value="Как представитель Клиента я хочу редактировать информацию о ресторане, чтобы подерживать ее в актуальном состоянии" style="shape=note;strokeWidth=2;fontSize=14;size=20;whiteSpace=wrap;fillColor=#fff2cc;strokeColor=#d6b656;fontColor=#666600;" parent="1" vertex="1">
          <mxGeometry x="920" y="1030" width="170" height="120" as="geometry" />
        </mxCell>
        <mxCell id="w1KEjnMWuGDtwRHeb4zf-23" value="Как представитель Клиентя я хочу видеть столики, которые привязаны к ресторану" style="shape=note;strokeWidth=2;fontSize=14;size=20;whiteSpace=wrap;fillColor=#fff2cc;strokeColor=#d6b656;fontColor=#666600;" parent="1" vertex="1">
          <mxGeometry x="920" y="890" width="170" height="120" as="geometry" />
        </mxCell>
        <mxCell id="w1KEjnMWuGDtwRHeb4zf-24" value="Как представитель Клиента я могу добавить столик к ресторану, чтобы сделать его доступным для бронирования" style="shape=note;strokeWidth=2;fontSize=14;size=20;whiteSpace=wrap;fillColor=#fff2cc;strokeColor=#d6b656;fontColor=#666600;" parent="1" vertex="1">
          <mxGeometry x="920" y="610" width="170" height="120" as="geometry" />
        </mxCell>
        <mxCell id="w1KEjnMWuGDtwRHeb4zf-25" value="Как представитель Клиента я хочу иметь возможность удалить столик из ресторана, чтобы поддерживать их список в актуальном состоянии" style="shape=note;strokeWidth=2;fontSize=14;size=20;whiteSpace=wrap;fillColor=#fff2cc;strokeColor=#d6b656;fontColor=#666600;" parent="1" vertex="1">
          <mxGeometry x="920" y="750" width="170" height="120" as="geometry" />
        </mxCell>
        <mxCell id="w1KEjnMWuGDtwRHeb4zf-26" value="Как представитель Клиента я хочу иметь возможность запросить продление прямо из своего профиля, чтобы не забыть это сделать &quot;по дороге&quot; из ЛК в почту" style="shape=note;strokeWidth=2;fontSize=14;size=20;whiteSpace=wrap;fillColor=#fff2cc;strokeColor=#d6b656;fontColor=#666600;" parent="1" vertex="1">
          <mxGeometry x="640" y="1200" width="170" height="120" as="geometry" />
        </mxCell>
        <mxCell id="w1KEjnMWuGDtwRHeb4zf-27" value="&lt;font style=&quot;font-size: 24px&quot;&gt;MVP&lt;/font&gt;" style="text;html=1;strokeColor=none;fillColor=none;align=center;verticalAlign=middle;whiteSpace=wrap;rounded=0;" parent="1" vertex="1">
          <mxGeometry x="10" y="190" width="60" height="30" as="geometry" />
        </mxCell>
        <mxCell id="w1KEjnMWuGDtwRHeb4zf-28" value="" style="endArrow=none;html=1;rounded=0;fontSize=24;" parent="1" edge="1">
          <mxGeometry width="50" height="50" relative="1" as="geometry">
            <mxPoint x="20" y="1180" as="sourcePoint" />
            <mxPoint x="1119.4117647058824" y="1180" as="targetPoint" />
          </mxGeometry>
        </mxCell>
        <mxCell id="w1KEjnMWuGDtwRHeb4zf-31" value="&lt;font style=&quot;font-size: 24px&quot;&gt;NTH&lt;font style=&quot;font-size: 24px&quot;&gt;&lt;br&gt;&lt;/font&gt;&lt;/font&gt;" style="text;html=1;strokeColor=none;fillColor=none;align=center;verticalAlign=middle;whiteSpace=wrap;rounded=0;" parent="1" vertex="1">
          <mxGeometry x="20" y="1200" width="60" height="30" as="geometry" />
        </mxCell>
      </root>
    </mxGraphModel>
  </diagram>
</mxfile>
